<svg viewBox="0 0 23 21" fill="none" xmlns="http://www.w3.org/2000/svg">
<path d="M16.2961 0.00309361C15.388 -0.0259796 14.4851 0.150177 13.6545 0.518445C12.824 0.886713 12.0872 1.4376 11.4991 2.13009C10.9114 1.43962 10.1762 0.890001 9.34762 0.521846C8.51905 0.15369 7.61835 -0.0235932 6.71207 0.00309361C4.86694 0.0752455 3.12545 0.875077 1.86841 2.22769C0.611371 3.5803 -0.0589338 5.37563 0.00407174 7.22109C0.00407174 10.8311 2.55407 13.0481 5.01907 15.1911C5.30207 15.4371 5.58807 15.6851 5.87207 15.9381L6.89907 16.8561C8.01911 17.9219 9.19334 18.9292 10.4171 19.8741C10.7409 20.0837 11.1183 20.1953 11.5041 20.1953C11.8898 20.1953 12.2673 20.0837 12.5911 19.8741C13.8538 18.9004 15.0641 17.8606 16.2171 16.7591L17.1391 15.9351C17.4321 15.6751 17.7291 15.4161 18.0241 15.1611C20.3581 13.1361 23.0041 10.8411 23.0041 7.22109C23.0671 5.37563 22.3968 3.5803 21.1397 2.22769C19.8827 0.875077 18.1412 0.0752455 16.2961 0.00309361Z" />
</svg>
