<svg viewBox="0 0 686 243" fill="none" xmlns="http://www.w3.org/2000/svg">
  <path
    d="M374.309 47.8938C375.116 48.2625 375.923 48.6312 376.755 49.011C379.84 50.3871 382.989 51.4248 386.184 52.5188C391.796 54.6935 395.578 56.8011 398.434 62.2063C401.69 69.7631 400.21 78.2541 399.434 86.2063C402.074 87.5263 404.714 88.8463 407.434 90.2063C406.617 96.4696 406.617 96.4696 405.958 99.1243C403.779 108.052 403.976 117.196 403.809 126.331C403.771 128.068 403.732 129.805 403.692 131.542C403.597 135.763 403.513 139.985 403.434 144.206C406.734 144.866 410.034 145.526 413.434 146.206C413.764 148.516 414.094 150.826 414.434 153.206C410.851 155.664 408.743 156.38 404.434 156.206C404.422 157.089 404.422 157.089 404.41 157.99C404.323 164.205 404.223 170.42 404.117 176.635C404.079 178.944 404.044 181.253 404.012 183.562C403.409 227.061 403.409 227.061 392.997 238.831C386.997 244.111 378.388 242.841 370.863 242.436C362.481 241.644 355.394 238.833 349.622 232.581C343.985 225.539 344.725 216.83 345.434 208.206C346.248 203.061 347.781 198.138 349.434 193.206C349.723 192.316 350.012 191.425 350.309 190.507C354.52 178.833 361.835 169.006 370.434 160.206C371.101 159.513 371.767 158.819 372.454 158.105C375.034 155.464 377.347 153.265 380.434 151.206C381.016 148.781 381.016 148.781 381.122 146.081C381.22 144.716 381.22 144.716 381.321 143.324C381.358 142.625 381.396 141.926 381.434 141.206C381.097 141.784 380.759 142.361 380.411 142.956C379.965 143.699 379.519 144.441 379.059 145.206C378.618 145.949 378.178 146.691 377.723 147.456C377.085 148.323 377.085 148.323 376.434 149.206C375.774 149.206 375.114 149.206 374.434 149.206C374.104 150.196 373.774 151.186 373.434 152.206C368.272 156.04 360.415 154.084 354.434 153.206C351.226 152.195 349.252 151.122 346.434 149.206C346.104 148.216 345.774 147.226 345.434 146.206C344.444 145.876 343.454 145.546 342.434 145.206C341.048 142.921 341.048 142.921 339.747 140.144C339.31 139.225 338.873 138.306 338.423 137.359C338.096 136.648 337.77 135.938 337.434 135.206C337.129 135.703 336.823 136.199 336.509 136.71C331.792 143.711 324.871 149.466 316.434 151.206C304.072 151.862 295.374 151.546 285.196 143.804C283.294 142.079 281.843 140.352 280.434 138.206C280.434 137.546 280.434 136.886 280.434 136.206C279.84 136.628 279.246 137.049 278.634 137.484C272.285 141.68 267.085 143.533 259.434 143.206C252.497 141.766 247.949 138.273 244.059 132.456C243.173 131.047 242.294 129.633 241.434 128.206C241.071 129.136 240.707 130.065 240.333 131.023C237.549 137.942 234.917 143.968 229.434 149.206C223.609 151.148 216.223 151.308 210.497 148.894C209.486 148.337 208.476 147.78 207.434 147.206C206.612 146.787 205.789 146.368 204.942 145.937C201.937 143.863 200.873 142.084 199.247 138.831C198.758 137.895 198.27 136.96 197.766 135.995C193.825 126.269 194.135 115.006 194.169 104.699C194.167 103.357 194.165 102.015 194.163 100.673C194.16 97.8914 194.164 95.1099 194.174 92.3284C194.185 88.7653 194.178 85.2025 194.166 81.6394C194.157 78.2216 194.164 74.8038 194.169 71.386C194.165 70.108 194.161 68.8299 194.156 67.5132C194.163 66.3341 194.169 65.155 194.176 63.9402C194.177 62.9024 194.179 61.8646 194.18 60.7954C194.434 58.2063 194.434 58.2063 196.434 55.2063C210.731 56.341 210.731 56.341 216.031 60.4415C217.926 62.8243 217.818 64.3324 217.835 67.3577C217.848 68.4102 217.862 69.4627 217.875 70.5471C217.875 71.6876 217.876 72.8281 217.876 74.0032C217.889 75.1842 217.902 76.3651 217.916 77.5819C217.957 81.3734 217.978 85.1647 217.997 88.9563C217.942 110.677 217.942 110.677 220.434 132.206C224.61 131.902 224.61 131.902 227.79 129.597C235.653 109.368 234.578 88.5418 234.434 67.2063C240.559 63.8742 248.173 64.1887 254.872 65.7884C256.747 66.6438 256.747 66.6438 259.434 69.2063C261.479 74.8627 260.265 81.2632 259.696 87.1087C258.568 100.461 258.316 115.97 264.434 128.206C266.414 128.206 268.394 128.206 270.434 128.206C272.722 122.867 273.535 118.514 273.317 112.689C272.724 94.9597 276.8 74.915 288.372 60.9563C294.146 55.1931 298.791 53.0161 306.997 52.7063C315.065 53.0041 318.794 55.2763 324.247 61.0188C329.497 67.4112 330.176 74.1885 329.434 82.2063C328.157 89.4294 326.076 95.8485 322.434 102.206C322.022 103.052 321.609 103.898 321.184 104.769C317.291 110.191 312.133 114.976 305.434 116.206C302.425 116.34 299.443 116.327 296.434 116.206C296.779 121.661 297.232 125.611 300.434 130.206C300.434 130.866 300.434 131.526 300.434 132.206C301.094 132.206 301.754 132.206 302.434 132.206C303.434 133.206 304.434 134.206 305.434 135.206C311.887 137.357 318.118 136.356 324.434 134.206C324.434 133.546 324.434 132.886 324.434 132.206C325.04 131.621 325.646 131.036 326.27 130.433C328.701 127.932 329.744 125.799 331.059 122.581C331.464 121.62 331.869 120.658 332.286 119.667C334.843 111.962 335.709 104.202 336.309 96.1438C337.82 78.66 340.801 60.5383 354.434 48.2063C360.365 44.4412 368.04 45.3637 374.309 47.8938ZM366.434 65.2063C354.398 77.6598 352.962 97.1139 353.074 113.611C353.232 126.858 353.232 126.858 358.434 138.206C361.763 138.958 361.763 138.958 365.434 138.206C370.639 134.269 373.217 128.164 375.434 122.206C375.769 121.371 376.105 120.536 376.45 119.675C377.887 114.611 378.358 109.492 378.934 104.269C380.245 92.4399 380.245 92.4399 381.509 88.2923C383.814 80.6075 382.875 73.3419 379.434 66.2063C375.05 61.3165 371.911 61.5914 366.434 65.2063ZM306.997 71.9563C300.886 78.6332 298.022 89.3465 297.434 98.2063C297.842 100.931 297.842 100.931 298.434 103.206C301.179 103.794 301.179 103.794 304.434 103.206C311.445 97.5577 314.124 88.8027 315.434 80.2063C315.666 77.4413 315.63 74.9952 315.434 72.2063C314.774 71.5463 314.114 70.8863 313.434 70.2063C309.476 69.8175 309.476 69.8175 306.997 71.9563ZM380.434 162.206C367.319 175.473 359.556 194.056 358.997 212.769C359.167 217.591 360.138 220.982 362.434 225.206C362.764 225.866 363.094 226.526 363.434 227.206C368.605 227.94 368.605 227.94 373.196 225.964C381.578 216.801 381.605 204.325 381.532 192.577C381.53 191.265 381.53 191.265 381.528 189.926C381.522 187.165 381.51 184.404 381.497 181.644C381.492 179.758 381.487 177.872 381.483 175.986C381.472 171.392 381.455 166.799 381.434 162.206C381.104 162.206 380.774 162.206 380.434 162.206Z"
    fill="currentColor"
  />
  <path
    d="M526.434 49.2063C531.977 52.314 535.016 55.4809 537.184 61.5188C539.172 68.5991 538.678 75.9256 538.434 83.2063C539.61 83.6395 539.61 83.6395 540.809 84.0813C543.434 85.2063 543.434 85.2063 545.434 87.2063C545.113 90.7385 544.556 93.8408 543.434 97.2063C543.198 101.619 543.249 106.038 543.247 110.456C543.235 111.672 543.222 112.888 543.21 114.14C543.2 120.205 543.298 125.499 545.434 131.206C548.28 131.503 548.28 131.503 551.434 130.206C560.706 117.639 560.412 100.738 560.61 85.8509C560.622 85.0486 560.634 84.2463 560.646 83.4197C560.695 80.1037 560.743 76.7881 560.76 73.4717C560.776 71.0142 560.816 68.558 560.86 66.1009C560.858 65.3509 560.856 64.601 560.854 63.8284C560.932 60.5573 561.005 58.684 563.236 56.2012C568.56 53.792 576.038 56.6916 581.434 58.2063C583.589 60.3609 582.695 65.2775 582.751 68.2727C582.771 69.1814 582.792 70.09 582.814 71.0261C582.879 73.9403 582.938 76.8545 582.997 79.7688C583.04 81.7395 583.084 83.7103 583.128 85.6809C583.235 90.5226 583.336 95.3644 583.434 100.206C583.765 99.0357 584.095 97.8651 584.436 96.659C584.88 95.1096 585.325 93.5603 585.77 92.011C585.987 91.2411 586.203 90.4711 586.426 89.6778C588.402 82.8428 590.987 77.0451 596.434 72.2063C601.636 70.4724 605.821 70.6724 610.747 73.0188C613.733 74.5498 614.477 75.2703 616.434 78.2063C616.753 81.209 616.753 81.209 616.848 84.8431C616.887 86.1418 616.926 87.4405 616.966 88.7786C616.997 90.1503 617.028 91.5221 617.059 92.8938C617.097 94.2773 617.137 95.6608 617.176 97.0442C617.271 100.431 617.356 103.819 617.434 107.206C619.354 101.942 621.27 96.6778 623.145 91.3977C631.451 68.1896 631.451 68.1896 635.434 64.2063C642.396 63.4266 648.013 63.5259 653.743 67.7845C654.58 68.4883 654.58 68.4883 655.434 69.2063C656.424 70.0107 657.414 70.8151 658.434 71.6438C660.434 74.2063 660.434 74.2063 660.934 77.0813C660.443 80.1491 659.455 82.5241 658.162 85.3291C655.24 92.8634 656.251 102.404 656.247 110.331C656.235 111.568 656.222 112.804 656.21 114.077C656.2 120.162 656.285 125.482 658.434 131.206C660.674 132.157 660.674 132.157 663.434 132.206C671.391 126.578 672.9 115.983 674.626 106.991C675.457 104.127 676.034 102.929 678.434 101.206C681.122 101.019 681.122 101.019 683.434 101.206C687.262 110.775 683.552 119.912 679.856 129.054C676.76 135.919 673.248 142.287 667.434 147.206C666.733 147.804 666.032 148.403 665.309 149.019C660.67 150.935 656.365 151.03 651.434 150.206C644.382 147.147 639.551 142.054 636.505 135.077C633.367 126.488 633.285 117.697 633.372 108.644C633.376 107.731 633.381 106.817 633.385 105.876C633.397 103.653 633.413 101.43 633.434 99.2063C630.379 105.755 628.006 112.248 626.372 119.273C626.129 120.312 626.129 120.312 625.882 121.371C625.224 124.233 624.581 127.098 623.955 129.967C623.486 132.094 622.993 134.215 622.497 136.335C622.22 137.584 621.942 138.832 621.657 140.119C620.204 143.788 618.995 144.649 615.434 146.206C610.939 147.088 606.68 146.669 602.559 144.644C598.004 141.091 596.729 137.199 595.91 131.658C595.808 129.827 595.808 129.827 595.704 127.96C595.644 126.976 595.644 126.976 595.582 125.972C595.458 123.905 595.352 121.837 595.247 119.769C595.165 118.355 595.083 116.942 594.999 115.529C594.797 112.089 594.611 108.648 594.434 105.206C590.409 125.269 590.409 125.269 588.77 145.616C588.434 148.206 588.434 148.206 587.294 150.054C582.459 153.05 575.023 151.642 569.649 150.738C567.342 150.107 565.466 149.466 563.434 148.206C561.934 145.456 561.934 145.456 561.434 142.206C561.228 140.928 561.022 139.649 560.809 138.331C560.686 137.3 560.562 136.269 560.434 135.206C559.781 136.02 559.781 136.02 559.114 136.851C554.444 142.461 551.052 145.74 543.559 146.706C537.49 146.462 533.108 142.968 529.059 138.706C527.469 136.259 526.475 133.922 525.434 131.206C525.071 131.991 524.707 132.776 524.333 133.585C520.76 141.051 517.526 147.449 510.559 152.144C502.742 154.802 495.08 152.675 487.434 150.206C485.949 149.216 485.949 149.216 484.434 148.206C484.434 147.546 484.434 146.886 484.434 146.206C482.949 145.711 482.949 145.711 481.434 145.206C478.434 139.984 478.434 139.984 478.434 137.206C477.774 137.206 477.114 137.206 476.434 137.206C476.228 137.887 476.022 138.568 475.809 139.269C473.404 144.408 469.86 149.133 464.434 151.206C459.368 151.874 454.193 152.017 449.559 149.644C439.831 142.056 436.941 130.001 435.434 118.206C435.192 113.702 435.199 109.216 435.247 104.706C435.247 103.56 435.248 102.414 435.249 101.234C435.285 94.1747 435.664 87.223 436.434 80.2063C434.454 79.8763 432.474 79.5463 430.434 79.2063C430.385 79.8148 430.336 80.4232 430.286 81.0501C430.025 84.1048 429.734 87.1553 429.434 90.2063C429.312 91.4606 429.189 92.7149 429.063 94.0071C427.942 104.557 426.68 116.34 420.434 125.206C417.934 126.206 417.934 126.206 415.434 126.206C413.731 125.167 413.731 125.167 412.434 123.206C412.519 120.623 412.756 118.359 413.184 115.831C413.397 114.369 413.608 112.907 413.817 111.445C413.978 110.359 413.978 110.359 414.142 109.252C416.042 95.9461 416.231 81.8676 415.067 68.4759C414.974 67.3888 414.974 67.3888 414.879 66.2798C414.697 64.3364 414.481 62.3961 414.262 60.4563C414.478 56.3884 415.536 55.0043 418.434 52.2063C421.318 50.3052 423.631 49.911 427.059 49.8938C428.223 49.8687 428.223 49.8687 429.411 49.8431C430.079 49.9629 430.746 50.0828 431.434 50.2063C433.624 53.4913 433.787 55.0373 434.059 58.8938C434.134 59.8877 434.209 60.8816 434.286 61.9056C434.335 62.6648 434.384 63.4241 434.434 64.2063C436.136 64.3707 436.136 64.3707 437.872 64.5384C439.393 64.698 440.914 64.8582 442.434 65.0188C443.178 65.0891 443.922 65.1593 444.688 65.2317C450.031 65.8125 454.523 66.9825 459.434 69.2063C462.261 73.4464 461.35 76.3444 460.434 81.2063C459.733 83.9049 458.975 86.5733 458.153 89.2376C456.038 97.9737 456.251 106.898 456.247 115.831C456.228 117.757 456.228 117.757 456.21 119.722C456.2 125.912 456.223 131.386 458.434 137.206C460.836 137.077 460.836 137.077 463.434 136.206C472.135 125.521 472.686 111.518 473.672 98.4212C475.104 79.8268 477.261 60.325 491.169 46.4798C501.833 38.3217 515.808 44.0011 526.434 49.2063ZM502.434 69.2063C493.882 82.0564 493.193 96.5637 493.059 111.519C493.045 112.591 493.031 113.664 493.017 114.769C492.995 127.417 492.995 127.417 498.434 138.206C501.807 138.79 501.807 138.79 505.434 138.206C512.929 132.245 515.075 124.327 516.434 115.206C516.93 110.533 517.314 105.851 517.612 101.162C518 95.8052 518.902 91.1947 520.733 86.1448C522.907 80.1367 522.415 75.2159 520.434 69.2063C517.801 65.4452 516.513 64.4024 511.997 63.5813C507.547 64.3621 505.201 65.7514 502.434 69.2063Z"
    fill="currentColor"
  />
  <path
    d="M39.8054 0.39188L36.5593 0.268833L36.4112 0.259406C28.939 -0.216321 23.535 -0.560373 17.4343 4.20633C3.49999 21 -9 50.5 11.4343 66.5C24 72.9922 11.1633 59.0723 12.4343 45.2027C15 17.2063 27.3552 14.5536 35 11.5C34.2325 17.4252 31.2924 39.2316 31.1942 45.2027C31.166 47.3944 31.1335 49.586 31.0973 51.7776C31.0391 55.2955 30.9859 58.8134 30.9343 62.3313C30.8829 65.885 30.8303 69.4386 30.7714 72.9922L30.7156 76.3391L30.6744 79.5994L30.6238 82.5857C30.5916 84.8192 30.6744 95 30 112C29 127 29 133 25.5 142.5C16.9721 160.1 36 148.5 39.5 144C45.5 137 49 124.5 49 124.5C54 104.5 51.8236 112.724 54 86C53.9922 84.1926 54.6208 73.3074 54.6196 71.5C54.6201 67.682 54.6616 72.218 54.6504 68.4001C54.6332 63.493 54.6195 58.5861 54.6196 53.679C54.6202 49.8179 54.6183 45.9569 54.6124 42.0959C54.6089 40.2447 54.6055 38.3935 54.6023 36.5423C54.5999 30.8057 54.5846 25.0711 54.4759 19.3354L54.4343 17.2063L54.3764 13.2232L54.2363 9.68534C54.1354 6.66327 54.1354 6.66327 53.4343 4.20633C49.0427 0.869274 49.0427 0.869274 39.8054 0.39188Z"
    fill="currentColor"
  />
  <path
    d="M122.844 59.0345C125.434 61.2063 125.434 61.2063 126.497 64.3938C126.399 70.379 124.662 75.0233 121.747 80.2063C118.952 82.6237 117.069 83.155 113.434 83.429C111.434 83.2063 111.434 83.2063 108.559 81.2063C104.079 78.339 100.5 79.2854 95.4343 80.2063C92.4145 87.5644 92.4145 87.5644 93.4343 95.2063C97.3618 100.758 102.36 104.68 107.809 108.644C124.036 120.768 124.036 120.768 126.434 128.206C126.348 132.966 125.431 136.284 122.157 139.855C113.111 146.952 100.363 147.127 89.4343 146.206C80.0553 144.811 73.4338 142.539 67.5593 134.706C66.4343 132.206 66.4343 132.206 66.4968 129.581C67.7008 126.531 68.4388 125.589 71.4343 124.206C78.5581 123.838 82.0667 126.829 87.3327 131.394C90.5967 134.209 92.8214 134.424 97.0593 134.769C98.5636 134.895 98.5636 134.895 100.098 135.023C100.869 135.083 101.64 135.144 102.434 135.206C102.967 132.162 102.932 130.022 101.298 127.343C96.2341 121.225 89.8194 116.841 83.4343 112.206C75.9008 106.722 70.158 99.2936 67.8093 90.1438C66.9333 84.089 68.3684 78.6395 71.5085 73.4212C81.4303 60.5328 107.891 51.0182 122.844 59.0345Z"
    fill="currentColor"
  />
  <path
    d="M188.497 64.9563C187.309 61.8817 185.765 60.3009 183.206 58.2581C173.686 52.6081 155.646 58.6505 146.594 62.9876C139.911 66.7585 132.906 71.6338 130.434 79.2063C129.798 85.9477 129.271 92.7338 132.958 98.6516L134.809 101.331C136.645 104.027 136.645 104.027 138.434 106.206C139.195 106.823 142.934 110.421 143.673 111.019C148.098 114.168 152.47 117.378 156.68 120.812L159.684 123.394C162.47 125.62 162.47 125.62 164.434 128.206C164.832 131.409 164.832 131.409 164.434 134.206C159.321 134.534 154.935 134.987 150.309 132.581C145.399 128.525 141.102 124.335 134.559 124.019C131.434 125.206 131.434 125.206 129.372 127.331C128.434 130.206 128.434 130.206 128.872 133.706C130.739 137.889 132.414 140.135 136.434 142.206C149.712 147.216 165.054 148.791 178.434 143.206C183.451 140.601 186.663 137.741 188.434 132.206C188.434 127.759 187.793 125.705 185.184 122.081L182.434 119.206C179.09 115.652 175.597 112.75 171.659 109.906C165.489 105.462 158.207 101.004 154.434 94.2063C153.886 90.5504 154.003 88.3993 155.247 84.9563L156.434 83.2063L157.559 81.5188C160.583 79.4024 163.826 78.9373 167.434 79.2063C170.069 80.9629 172.25 83.075 175.442 83.429C179.074 83.1543 180.954 82.6214 183.747 80.2063C186.511 75.2924 188.388 70.6383 188.497 64.9563Z"
    fill="currentColor"
  />
</svg>
